<svg width="1200" height="675" viewBox="0 0 1200 675" fill="none" xmlns="http://www.w3.org/2000/svg">
  <rect width="1200" height="675" rx="32" fill="#0B1020"/>
  <radialGradient id="g" cx="0" cy="0" r="1" gradientUnits="userSpaceOnUse" gradientTransform="translate(760 295) rotate(138) scale(650 460)">
    <stop stop-color="#F97316" stop-opacity="0.42"/>
    <stop offset="0.45" stop-color="#22C55E" stop-opacity="0.18"/>
    <stop offset="1" stop-color="#0B1020" stop-opacity="0"/>
  </radialGradient>
  <rect width="1200" height="675" rx="32" fill="url(#g)"/>
  <rect x="48" y="48" width="1104" height="579" rx="28" fill="#0F172A" stroke="#334155" stroke-width="2"/>
  <rect x="82" y="86" width="1036" height="70" rx="18" fill="#111827" stroke="#334155"/>
  <text x="112" y="130" font-family="Inter, ui-sans-serif, system-ui" font-size="28" font-weight="800" fill="#F8FAFC">Dice-Dine</text>
  <text x="285" y="130" font-family="Inter, ui-sans-serif, system-ui" font-size="16" fill="#94A3B8">AI dining concierge · map-first recommendations</text>
  <rect x="82" y="184" width="430" height="390" rx="24" fill="#020617" stroke="#334155"/>
  <text x="114" y="232" font-family="Inter, ui-sans-serif, system-ui" font-size="20" font-weight="700" fill="#F8FAFC">Tonight I want...</text>
  <rect x="114" y="258" width="350" height="54" rx="16" fill="#1E293B" stroke="#475569"/>
  <text x="136" y="292" font-family="Inter, ui-sans-serif, system-ui" font-size="16" fill="#CBD5E1">spicy, casual, near downtown</text>
  <rect x="114" y="344" width="350" height="72" rx="18" fill="#172554" stroke="#2563EB"/>
  <text x="136" y="375" font-family="Inter, ui-sans-serif, system-ui" font-size="17" font-weight="700" fill="#DBEAFE">Szechuan Garden</text>
  <text x="136" y="399" font-family="Inter, ui-sans-serif, system-ui" font-size="13" fill="#BFDBFE">Best match for heat level + group seating</text>
  <rect x="114" y="432" width="350" height="72" rx="18" fill="#14532D" stroke="#22C55E"/>
  <text x="136" y="463" font-family="Inter, ui-sans-serif, system-ui" font-size="17" font-weight="700" fill="#DCFCE7">Noodle Lab</text>
  <text x="136" y="487" font-family="Inter, ui-sans-serif, system-ui" font-size="13" fill="#BBF7D0">Fast, affordable, highly rated nearby</text>
  <rect x="548" y="184" width="570" height="390" rx="24" fill="#0A1224" stroke="#334155"/>
  <path d="M578 532 C650 458 648 386 724 350 C801 314 804 236 897 222 C987 209 1028 250 1082 207" stroke="#334155" stroke-width="4" fill="none"/>
  <path d="M578 450 C668 414 695 450 748 404 C802 357 868 377 915 330 C962 284 1021 291 1082 265" stroke="#1F2937" stroke-width="3" fill="none"/>
  <circle cx="704" cy="350" r="18" fill="#F97316" stroke="#FED7AA" stroke-width="4"/>
  <circle cx="860" cy="285" r="18" fill="#22C55E" stroke="#BBF7D0" stroke-width="4"/>
  <circle cx="990" cy="390" r="18" fill="#3B82F6" stroke="#BFDBFE" stroke-width="4"/>
  <rect x="878" y="326" width="178" height="88" rx="18" fill="#020617" stroke="#475569"/>
  <text x="900" y="361" font-family="Inter, ui-sans-serif, system-ui" font-size="16" font-weight="700" fill="#F8FAFC">Top pick</text>
  <text x="900" y="386" font-family="Inter, ui-sans-serif, system-ui" font-size="13" fill="#94A3B8">AI reason + route</text>
</svg>
